<svg width="56" height="56" viewBox="0 0 56 56" fill="none" xmlns="http://www.w3.org/2000/svg">
<path d="M55.9436 0H0V55.9436H55.9436V0Z" fill="url(#paint0_radial_2001_349)"/>
<path d="M40.6974 11.3268H35.1651C28.3513 11.3268 23.2255 13.4851 19.7873 17.8104C16.8179 21.5285 15.3336 26.4608 15.3336 32.6158C15.3336 34.5044 15.4427 36.098 15.6615 37.3795H11.9578L14.1614 45.1193H42.1508L44.3541 37.3795H41.1193V20.6347H32.7272V37.3795H24.0539C23.9286 36.5701 23.8506 35.7015 23.8192 34.791C23.7882 33.8804 23.7724 32.6916 23.7724 31.2416C23.7724 27.6243 24.7883 24.6312 26.82 22.2621C28.6015 20.1964 30.5705 19.168 32.7272 19.168H42.9007L40.6974 11.3268Z" fill="white"/>
<path fill-rule="evenodd" clip-rule="evenodd" d="M17.067 13.9331C17.2873 13.6776 17.7464 13.1372 18.0863 13.1372C18.1738 13.1372 18.1743 13.2122 18.1441 13.2735C17.9734 13.6185 17.4541 13.9417 17.067 13.9331ZM17.8696 8.70837C18.0481 8.70837 18.1499 8.71689 18.2934 8.84813C18.6059 9.13393 18.6272 9.88857 18.595 10.2992C18.5446 10.9416 18.2598 11.7736 17.8857 12.2831C17.6848 12.5568 17.013 13.1863 16.7204 13.3412C16.7241 13.3488 16.8768 13.7854 16.8836 13.8107C16.9171 13.786 17.1853 13.3081 17.446 13.0473C17.7254 12.7675 18.1933 12.4779 18.5305 12.8149C18.8802 13.2042 18.407 13.9044 18.0915 14.224C17.8863 14.432 17.4891 14.7086 17.0875 14.7086C16.5993 14.7086 16.1377 14.1363 16.0476 13.7494L15.2351 14.0791C14.3588 14.4058 13.4898 14.6373 12.5528 14.7817C11.6079 14.9272 10.0867 15.0466 9.23119 14.6341C8.23971 14.1563 8.37897 13.347 8.79626 12.5111C9.10833 11.8856 9.61615 11.4202 10.1289 10.9674C10.7907 10.4339 11.4957 9.99514 12.305 9.65593C12.7946 9.45068 14.1323 8.91609 14.7642 9.23803C15.3216 9.52198 14.578 10.4118 14.2894 10.724C14.2215 10.7976 14.0608 10.9661 13.9885 11.0146C14.0939 10.7624 14.7626 9.46351 14.3147 9.46351C13.9342 9.46351 13.1611 9.93347 12.7995 10.1306C12.2817 10.4422 11.643 10.8388 11.1722 11.2159C10.8449 11.4779 10.6156 11.6459 10.3034 11.9586C9.99298 12.2694 9.46246 12.7979 9.46246 13.2597C9.46246 14.5706 13.3197 13.9946 14.3673 13.7612C14.777 13.67 15.551 13.488 15.9049 13.3004C15.8956 13.1864 15.8579 13.0629 15.8437 12.933C15.8005 12.5381 15.7969 12.1376 15.8519 11.7575C15.8948 11.4616 16.0039 10.9909 16.1086 10.7286C16.1474 10.6312 16.191 10.5311 16.2282 10.4402C16.4399 9.92212 17.2183 8.78362 17.8696 8.70837ZM16.7 12.8922C16.7 11.9902 17.0857 10.0509 17.9641 9.58599C18.1221 10.2654 17.9345 10.8323 17.6243 11.45C17.5045 11.6883 16.9005 12.7522 16.7 12.8922Z" fill="white"/>
<path fill-rule="evenodd" clip-rule="evenodd" d="M18.9836 12.5451C19.2092 12.5262 19.1801 12.4023 19.9009 12.4023C20.1575 12.4023 20.4733 12.5458 20.5346 12.7272C20.5844 12.8747 20.3001 13.1166 19.9009 13.1166C19.5157 13.1166 19.2379 12.8857 19.0039 12.7288C19.0231 12.6758 19.0471 12.684 19.0853 12.6268C19.0413 12.597 19.015 12.5881 18.9836 12.5451ZM21.7054 11.9208C21.8089 11.8229 21.9376 11.7051 22.0441 11.5885C22.1589 11.4626 22.1757 11.4023 22.2042 11.3198C22.1182 11.3241 21.9277 11.3602 21.8195 11.4583C21.7106 11.5542 21.6266 11.7399 21.7054 11.9208ZM22.2048 12.0348C21.9838 12.0348 22.0591 12.0261 21.9194 12.0145C22.1271 11.8341 22.6328 11.5552 22.6328 11.2593C22.6328 11.0477 22.3062 11.0348 22.1436 11.0348C21.8805 11.0348 21.4888 11.1843 21.2669 11.341C21.2606 11.0579 20.8387 10.9117 20.8387 11.2593C20.8387 11.4505 21.0378 11.4929 21.1038 11.5246C21.0424 11.651 21.0018 11.6947 21.0018 11.9736C20.5307 11.7241 19.4491 11.5192 18.9678 11.9987C18.8607 12.1055 18.7936 12.1617 18.7368 12.3186C18.6781 12.481 18.6079 12.3597 18.6687 12.7786C18.7355 13.2394 18.8815 13.6349 19.2974 13.8025C19.9429 14.0628 20.8556 13.7026 21.273 13.2043C21.3799 13.077 21.5163 12.9176 21.532 12.7288C22.2101 13.1834 23.1527 12.9052 23.8563 12.6269C24.4457 12.3941 25.1264 12.0322 25.6623 11.6796C25.9389 11.4978 27.1294 10.7044 27.2609 10.5245C27.0858 10.5797 26.8045 10.6734 26.6466 10.7261L25.4378 11.1487C25.0116 11.3138 24.0088 11.617 23.5683 11.7468C23.1875 11.8589 22.5689 12.0348 22.2048 12.0348Z" fill="white"/>
<path fill-rule="evenodd" clip-rule="evenodd" d="M21.6541 10.6473C21.6541 11.0044 22.1025 11.0443 22.1025 10.7901C22.1025 10.4783 21.6541 10.4062 21.6541 10.6473Z" fill="white"/>
<defs>
<radialGradient id="paint0_radial_2001_349" cx="0" cy="0" r="1" gradientUnits="userSpaceOnUse" gradientTransform="translate(27.97 27.9701) scale(26.8442 26.1963)">
<stop stop-color="#E31F25"/>
<stop offset="1" stop-color="#9E241F"/>
</radialGradient>
</defs>
</svg>
