<svg width="269" height="72" viewBox="0 0 269 72" fill="none" xmlns="http://www.w3.org/2000/svg">
<g clip-path="url(#clip0_2005_4562)">
<path d="M71.9275 0H0V71.9275H71.9275V0Z" fill="url(#paint0_radial_2005_4562)"/>
<path d="M52.3252 14.563H45.2122C36.4517 14.563 29.8613 17.3381 25.4408 22.8992C21.623 27.6796 19.7146 34.0211 19.7146 41.9346C19.7146 44.3628 19.8549 46.4118 20.1363 48.0594H15.3743L18.2075 58.0106H54.1938L57.0267 48.0594H52.8677V26.5304H42.0779V48.0594H30.9264C30.7653 47.0187 30.6651 45.9019 30.6246 44.7314C30.5848 43.5605 30.5645 42.0322 30.5645 40.1678C30.5645 35.517 31.8707 31.6688 34.4828 28.6227C36.7733 25.9668 39.3049 24.6446 42.0779 24.6446H55.1581L52.3252 14.563Z" fill="white"/>
<path fill-rule="evenodd" clip-rule="evenodd" d="M21.9434 17.914C22.2267 17.5854 22.8169 16.8907 23.254 16.8907C23.3664 16.8907 23.3671 16.9871 23.3282 17.0659C23.1087 17.5095 22.4411 17.925 21.9434 17.914ZM22.9754 11.1965C23.2048 11.1965 23.3357 11.2074 23.5203 11.3762C23.922 11.7436 23.9494 12.7139 23.908 13.2418C23.8432 14.0678 23.477 15.1374 22.996 15.7926C22.7378 16.1445 21.874 16.9538 21.4978 17.153C21.5025 17.1628 21.6989 17.724 21.7076 17.7566C21.7507 17.7248 22.0955 17.1105 22.4308 16.775C22.79 16.4154 23.3915 16.043 23.8251 16.4763C24.2747 16.9768 23.6663 17.8771 23.2607 18.288C22.9968 18.5554 22.4861 18.9111 21.9697 18.9111C21.342 18.9111 20.7486 18.1752 20.6328 17.6777L19.5882 18.1017C18.4614 18.5218 17.3441 18.8194 16.1395 19.005C14.9245 19.1921 12.9688 19.3456 11.8688 18.8153C10.5941 18.2009 10.7731 17.1604 11.3096 16.0857C11.7109 15.2814 12.3638 14.6831 13.023 14.1009C13.8739 13.415 14.7804 12.8509 15.8209 12.4148C16.4503 12.1509 18.1702 11.4635 18.9827 11.8775C19.6994 12.2425 18.7432 13.3866 18.3723 13.788C18.2849 13.8827 18.0783 14.0993 17.9853 14.1616C18.1209 13.8373 18.9806 12.1674 18.4048 12.1674C17.9155 12.1674 16.9215 12.7716 16.4567 13.025C15.7909 13.4256 14.9697 13.9356 14.3644 14.4205C13.9436 14.7573 13.6488 14.9733 13.2474 15.3753C12.8483 15.775 12.1662 16.4544 12.1662 17.0481C12.1662 18.7336 17.1254 17.993 18.4723 17.693C18.9992 17.5758 19.9943 17.3417 20.4493 17.1005C20.4373 16.9539 20.3889 16.7952 20.3707 16.6282C20.315 16.1204 20.3104 15.6054 20.3811 15.1168C20.4363 14.7364 20.5765 14.1312 20.7112 13.7939C20.7611 13.6687 20.8171 13.54 20.865 13.4231C21.1371 12.757 22.138 11.2932 22.9754 11.1965ZM21.4716 16.5757C21.4716 15.4159 21.9675 12.9226 23.0968 12.3248C23.3 13.1984 23.0588 13.9272 22.6599 14.7215C22.5059 15.0279 21.7293 16.3957 21.4716 16.5757Z" fill="white"/>
<path fill-rule="evenodd" clip-rule="evenodd" d="M24.4076 16.1294C24.6977 16.1052 24.6603 15.9458 25.5871 15.9458C25.9169 15.9458 26.3229 16.1304 26.4018 16.3635C26.4658 16.5532 26.1003 16.8642 25.5871 16.8642C25.0918 16.8642 24.7347 16.5673 24.4338 16.3656C24.4584 16.2975 24.4893 16.308 24.5385 16.2344C24.4819 16.1962 24.4481 16.1848 24.4076 16.1294ZM27.9071 15.3268C28.0402 15.2009 28.2057 15.0494 28.3426 14.8996C28.4902 14.7376 28.5118 14.6601 28.5484 14.554C28.4379 14.5595 28.1929 14.606 28.0538 14.7321C27.9138 14.8555 27.8058 15.0941 27.9071 15.3268ZM28.5492 15.4733C28.265 15.4733 28.3619 15.4621 28.1822 15.4472C28.4493 15.2153 29.0995 14.8567 29.0995 14.4763C29.0995 14.2041 28.6796 14.1876 28.4706 14.1876C28.1323 14.1876 27.6286 14.3799 27.3433 14.5813C27.3352 14.2173 26.7928 14.0294 26.7928 14.4763C26.7928 14.7221 27.0488 14.7766 27.1336 14.8174C27.0547 14.9798 27.0025 15.0361 27.0025 15.3947C26.3968 15.0738 25.0062 14.8104 24.3873 15.4269C24.2497 15.5642 24.1634 15.6365 24.0903 15.8383C24.0148 16.047 23.9246 15.8911 24.0028 16.4296C24.0887 17.0221 24.2763 17.5306 24.8111 17.7461C25.641 18.0807 26.8146 17.6176 27.3512 16.9769C27.4886 16.8133 27.664 16.6084 27.6841 16.3656C28.556 16.9501 29.768 16.5923 30.6726 16.2346C31.4303 15.9353 32.3056 15.47 32.9945 15.0166C33.3502 14.7828 34.8808 13.7628 35.0498 13.5316C34.8248 13.6024 34.4631 13.723 34.2601 13.7907L32.7059 14.334C32.1579 14.5464 30.8686 14.9362 30.3023 15.103C29.8127 15.2472 29.0174 15.4733 28.5492 15.4733Z" fill="white"/>
<path fill-rule="evenodd" clip-rule="evenodd" d="M27.8411 13.6893C27.8411 14.1485 28.4177 14.1998 28.4177 13.873C28.4177 13.4721 27.8411 13.3795 27.8411 13.6893Z" fill="white"/>
</g>
<path d="M260.924 48V35.4H268.637V38.127H263.912V48H260.924Z" fill="#737373"/>
<path d="M240.182 48V35.4H243.17V40.071H247.013V42.798H243.17V48H240.182ZM252.017 48.27C251.045 48.27 250.148 48.105 249.326 47.775C248.51 47.439 247.799 46.974 247.193 46.38C246.593 45.786 246.125 45.09 245.789 44.292C245.459 43.494 245.294 42.63 245.294 41.7C245.294 40.764 245.459 39.897 245.789 39.099C246.125 38.301 246.593 37.605 247.193 37.011C247.799 36.417 248.51 35.955 249.326 35.625C250.148 35.295 251.045 35.13 252.017 35.13C252.983 35.13 253.874 35.298 254.69 35.634C255.506 35.97 256.217 36.438 256.823 37.038C257.429 37.638 257.9 38.337 258.236 39.135C258.572 39.927 258.74 40.782 258.74 41.7C258.74 42.63 258.572 43.494 258.236 44.292C257.9 45.09 257.429 45.786 256.823 46.38C256.217 46.974 255.506 47.439 254.69 47.775C253.874 48.105 252.983 48.27 252.017 48.27ZM252.017 45.462C252.533 45.462 253.01 45.375 253.448 45.201C253.886 45.027 254.264 44.775 254.582 44.445C254.906 44.115 255.158 43.719 255.338 43.257C255.518 42.789 255.608 42.27 255.608 41.7C255.608 40.932 255.452 40.266 255.14 39.702C254.828 39.138 254.402 38.703 253.862 38.397C253.322 38.085 252.707 37.929 252.017 37.929C251.501 37.929 251.024 38.019 250.586 38.199C250.148 38.373 249.767 38.625 249.443 38.955C249.119 39.285 248.867 39.681 248.687 40.143C248.513 40.605 248.426 41.124 248.426 41.7C248.426 42.462 248.582 43.125 248.894 43.689C249.206 44.253 249.632 44.691 250.172 45.003C250.712 45.309 251.327 45.462 252.017 45.462Z" fill="#737373"/>
<path d="M232.496 44.202V41.619H237.788V44.202H232.496Z" fill="#737373"/>
<path d="M226.136 48V38.127H222.779V35.4H232.499V38.127H229.142V48H226.136Z" fill="#737373"/>
<path d="M210 48V35.4H212.988V40.071H217.956V35.4H220.944V48H217.956V42.798H212.988V48H210Z" fill="#737373"/>
<path d="M198.575 48V35.4H207.431V37.992H201.563V40.332H206.486V42.726H201.563V45.381H207.503V48H198.575Z" fill="#737373"/>
<path d="M181.717 48V35.4H184.588L189.376 43.347L188.188 43.356L192.742 35.4H195.604V48H192.706L192.76 39.216L193.291 39.405L189.655 45.624H187.666L183.886 39.405L184.399 39.216L184.453 48H181.717Z" fill="#737373"/>
<path d="M167.795 48V35.4H178.739V48H175.751V38.127H170.783V48H167.795Z" fill="#737373"/>
<path d="M158.882 48.27C157.916 48.27 157.022 48.105 156.2 47.775C155.384 47.439 154.673 46.974 154.067 46.38C153.461 45.786 152.99 45.09 152.654 44.292C152.324 43.494 152.159 42.63 152.159 41.7C152.159 40.764 152.324 39.897 152.654 39.099C152.99 38.301 153.461 37.605 154.067 37.011C154.673 36.417 155.384 35.955 156.2 35.625C157.022 35.295 157.916 35.13 158.882 35.13C159.854 35.13 160.748 35.298 161.564 35.634C162.38 35.97 163.091 36.438 163.697 37.038C164.303 37.638 164.771 38.337 165.101 39.135C165.437 39.927 165.605 40.782 165.605 41.7C165.605 42.63 165.437 43.494 165.101 44.292C164.771 45.09 164.303 45.786 163.697 46.38C163.091 46.974 162.38 47.439 161.564 47.775C160.748 48.105 159.854 48.27 158.882 48.27ZM158.882 45.462C159.404 45.462 159.881 45.375 160.313 45.201C160.751 45.027 161.132 44.775 161.456 44.445C161.78 44.115 162.029 43.719 162.203 43.257C162.383 42.789 162.473 42.27 162.473 41.7C162.473 40.932 162.317 40.266 162.005 39.702C161.699 39.138 161.273 38.703 160.727 38.397C160.187 38.085 159.572 37.929 158.882 37.929C158.366 37.929 157.889 38.019 157.451 38.199C157.013 38.373 156.632 38.625 156.308 38.955C155.99 39.285 155.741 39.681 155.561 40.143C155.381 40.605 155.291 41.124 155.291 41.7C155.291 42.462 155.447 43.125 155.759 43.689C156.071 44.253 156.497 44.691 157.037 45.003C157.583 45.309 158.198 45.462 158.882 45.462Z" fill="#737373"/>
<path d="M139.007 48.243L138.035 45.516C138.437 45.39 138.779 45.249 139.061 45.093C139.349 44.931 139.586 44.718 139.772 44.454C139.958 44.184 140.102 43.827 140.204 43.383C140.312 42.939 140.384 42.375 140.42 41.691C140.462 41.001 140.483 40.152 140.483 39.144V35.4H149.978V48H146.99V38.127H143.309V39.009C143.309 40.299 143.267 41.421 143.183 42.375C143.105 43.329 142.97 44.145 142.778 44.823C142.586 45.501 142.325 46.065 141.995 46.515C141.665 46.965 141.254 47.328 140.762 47.604C140.276 47.88 139.691 48.093 139.007 48.243Z" fill="#737373"/>
<path d="M127.77 48V35.4H136.626V37.992H130.758V40.332H135.681V42.726H130.758V45.381H136.698V48H127.77Z" fill="#737373"/>
<path d="M115.922 48V35.4H120.8C122.084 35.4 123.11 35.67 123.878 36.21C124.646 36.744 125.03 37.539 125.03 38.595C125.03 38.979 124.952 39.333 124.796 39.657C124.64 39.981 124.427 40.269 124.157 40.521C123.893 40.767 123.596 40.965 123.266 41.115C123.944 41.355 124.49 41.754 124.904 42.312C125.324 42.87 125.534 43.533 125.534 44.301C125.534 45.051 125.345 45.702 124.967 46.254C124.595 46.806 124.064 47.235 123.374 47.541C122.684 47.847 121.865 48 120.917 48H115.922ZM118.91 45.795H120.485C121.133 45.795 121.619 45.663 121.943 45.399C122.267 45.135 122.429 44.739 122.429 44.211C122.429 43.707 122.273 43.317 121.961 43.041C121.655 42.759 121.196 42.618 120.584 42.618H118.91V45.795ZM118.91 40.566H120.395C120.755 40.566 121.064 40.506 121.322 40.386C121.586 40.266 121.787 40.092 121.925 39.864C122.069 39.636 122.141 39.363 122.141 39.045C122.141 38.583 121.985 38.226 121.673 37.974C121.367 37.722 120.926 37.596 120.35 37.596H118.91V40.566Z" fill="#737373"/>
<path d="M104.497 48V35.4H113.353V37.992H107.485V40.332H112.408V42.726H107.485V45.381H113.425V48H104.497Z" fill="#737373"/>
<path d="M97.5489 48V38.127H93.7059V39.009C93.7059 40.449 93.6279 41.694 93.4719 42.744C93.3159 43.788 93.0669 44.664 92.7249 45.372C92.3889 46.074 91.9419 46.635 91.3839 47.055C90.8259 47.475 90.1389 47.778 89.3229 47.964L88.3059 45.453C88.8279 45.339 89.2539 45.162 89.5839 44.922C89.9199 44.682 90.1809 44.328 90.3669 43.86C90.5589 43.392 90.6909 42.768 90.7629 41.988C90.8409 41.202 90.8799 40.209 90.8799 39.009V35.4H100.537V48H97.5489ZM88.3059 51.168V45.453L89.9889 45.516L90.9249 45.273H102.571V51.168H99.7359V48H91.1409V51.168H88.3059Z" fill="#737373"/>
<path d="M261.451 31V22.6H262.789V28.804L266.989 22.6H268.285V31H266.953V24.754L262.735 31H261.451Z" fill="#737373"/>
<path d="M256.333 31V23.83H253.969V22.6H260.04V23.83H257.676V31H256.333Z" fill="#737373"/>
<path d="M250.197 31.18C249.325 31.18 248.563 31 247.911 30.64C247.259 30.28 246.751 29.772 246.387 29.116C246.027 28.456 245.847 27.686 245.847 26.806C245.847 26.166 245.953 25.58 246.165 25.048C246.381 24.512 246.683 24.048 247.071 23.656C247.463 23.264 247.925 22.96 248.457 22.744C248.989 22.528 249.573 22.42 250.209 22.42C250.849 22.42 251.401 22.5 251.865 22.66C252.333 22.82 252.741 23.048 253.089 23.344L252.393 24.442C252.129 24.198 251.821 24.016 251.469 23.896C251.117 23.776 250.729 23.716 250.305 23.716C249.837 23.716 249.415 23.788 249.039 23.932C248.663 24.076 248.341 24.282 248.073 24.55C247.809 24.814 247.605 25.136 247.461 25.516C247.321 25.892 247.251 26.318 247.251 26.794C247.251 27.442 247.377 27.996 247.629 28.456C247.885 28.916 248.245 29.268 248.709 29.512C249.177 29.752 249.729 29.872 250.365 29.872C250.789 29.872 251.197 29.81 251.589 29.686C251.985 29.558 252.355 29.352 252.699 29.068L253.323 30.202C252.919 30.518 252.457 30.76 251.937 30.928C251.421 31.096 250.841 31.18 250.197 31.18Z" fill="#737373"/>
<path d="M240.18 31.18C239.548 31.18 238.962 31.07 238.422 30.85C237.886 30.626 237.418 30.316 237.018 29.92C236.622 29.524 236.312 29.06 236.088 28.528C235.868 27.996 235.758 27.42 235.758 26.8C235.758 26.176 235.868 25.598 236.088 25.066C236.312 24.534 236.622 24.07 237.018 23.674C237.418 23.278 237.886 22.97 238.422 22.75C238.962 22.53 239.548 22.42 240.18 22.42C240.808 22.42 241.39 22.532 241.926 22.756C242.462 22.98 242.93 23.292 243.33 23.692C243.73 24.092 244.04 24.558 244.26 25.09C244.484 25.618 244.596 26.188 244.596 26.8C244.596 27.42 244.484 27.996 244.26 28.528C244.04 29.06 243.73 29.524 243.33 29.92C242.93 30.316 242.462 30.626 241.926 30.85C241.39 31.07 240.808 31.18 240.18 31.18ZM240.18 29.908C240.604 29.908 240.998 29.836 241.362 29.692C241.73 29.544 242.05 29.334 242.322 29.062C242.594 28.786 242.806 28.458 242.958 28.078C243.114 27.694 243.192 27.268 243.192 26.8C243.192 26.172 243.058 25.626 242.79 25.162C242.526 24.694 242.166 24.332 241.71 24.076C241.254 23.82 240.744 23.692 240.18 23.692C239.756 23.692 239.36 23.766 238.992 23.914C238.628 24.058 238.308 24.266 238.032 24.538C237.76 24.81 237.546 25.138 237.39 25.522C237.238 25.902 237.162 26.328 237.162 26.8C237.162 27.428 237.296 27.976 237.564 28.444C237.832 28.908 238.192 29.268 238.644 29.524C239.1 29.78 239.612 29.908 240.18 29.908Z" fill="#737373"/>
<path d="M225.311 31V22.6H226.613L230.039 28.174L229.517 28.18L232.817 22.6H234.095V31H232.781L232.799 24.388L233.057 24.478L230.201 29.188H229.217L226.307 24.478L226.523 24.388L226.541 31H225.311Z" fill="#737373"/>
<path d="M216.287 31V22.6H217.625V28.804L221.825 22.6H223.121V31H221.789V24.754L217.571 31H216.287Z" fill="#737373"/>
<path d="M213.316 31L210.226 26.554L212.974 22.6H214.516L211.75 26.542L214.93 31H213.316ZM203.506 31L206.668 26.614L203.938 22.6H205.528L208.192 26.56L205.06 31H203.506ZM208.546 31V27.124H207.142V25.972H208.546V22.6H209.89V25.972H211.288V27.124H209.89V31H208.546Z" fill="#737373"/>
<path d="M195.311 31V22.6H196.649V28.804L200.849 22.6H202.145V31H200.813V24.754L196.595 31H195.311Z" fill="#737373"/>
<path d="M187.705 31V22.6H190.591C191.395 22.6 192.045 22.78 192.541 23.14C193.037 23.496 193.285 24.022 193.285 24.718C193.285 24.986 193.221 25.24 193.093 25.48C192.969 25.716 192.807 25.924 192.607 26.104C192.407 26.284 192.199 26.416 191.983 26.5C192.439 26.64 192.819 26.896 193.123 27.268C193.431 27.64 193.585 28.098 193.585 28.642C193.585 29.102 193.469 29.51 193.237 29.866C193.005 30.218 192.675 30.496 192.247 30.7C191.819 30.9 191.311 31 190.723 31H187.705ZM189.049 29.944H190.495C191.071 29.944 191.499 29.832 191.779 29.608C192.059 29.38 192.199 29.038 192.199 28.582C192.199 28.13 192.057 27.786 191.773 27.55C191.493 27.314 191.059 27.196 190.471 27.196H189.049V29.944ZM189.049 26.188H190.381C190.705 26.188 190.985 26.136 191.221 26.032C191.457 25.928 191.641 25.778 191.773 25.582C191.905 25.386 191.971 25.15 191.971 24.874C191.971 24.482 191.831 24.182 191.551 23.974C191.275 23.762 190.879 23.656 190.363 23.656H189.049V26.188Z" fill="#737373"/>
<path d="M183.604 31V23.83H180.316V25.12C180.316 26.14 180.268 26.998 180.172 27.694C180.076 28.39 179.926 28.96 179.722 29.404C179.518 29.844 179.25 30.186 178.918 30.43C178.59 30.674 178.19 30.852 177.718 30.964L177.238 29.878C177.598 29.794 177.894 29.666 178.126 29.494C178.358 29.322 178.538 29.066 178.666 28.726C178.798 28.382 178.89 27.92 178.942 27.34C178.998 26.756 179.026 26.016 179.026 25.12V22.6H184.948V31H183.604ZM177.238 33.136V29.878L178.162 29.926L178.66 29.764H186.286V33.136H185.02V31H178.504V33.136H177.238Z" fill="#737373"/>
<path d="M170.748 31V22.6H176.178V23.788H172.092V26.056H175.62V27.178H172.092V29.8H176.214V31H170.748Z" fill="#737373"/>
<path d="M161.807 31V22.6H163.151V25.936H167.219V22.6H168.563V31H167.219V27.172H163.151V31H161.807Z" fill="#737373"/>
<path d="M152.793 31.18C152.161 31.18 151.575 31.07 151.035 30.85C150.499 30.626 150.031 30.316 149.631 29.92C149.235 29.524 148.925 29.06 148.701 28.528C148.481 27.996 148.371 27.42 148.371 26.8C148.371 26.176 148.481 25.598 148.701 25.066C148.925 24.534 149.235 24.07 149.631 23.674C150.031 23.278 150.499 22.97 151.035 22.75C151.575 22.53 152.161 22.42 152.793 22.42C153.421 22.42 154.003 22.532 154.539 22.756C155.075 22.98 155.543 23.292 155.943 23.692C156.343 24.092 156.653 24.558 156.873 25.09C157.097 25.618 157.209 26.188 157.209 26.8C157.209 27.42 157.097 27.996 156.873 28.528C156.653 29.06 156.343 29.524 155.943 29.92C155.543 30.316 155.075 30.626 154.539 30.85C154.003 31.07 153.421 31.18 152.793 31.18ZM152.793 29.908C153.217 29.908 153.611 29.836 153.975 29.692C154.343 29.544 154.663 29.334 154.935 29.062C155.207 28.786 155.419 28.458 155.571 28.078C155.727 27.694 155.805 27.268 155.805 26.8C155.805 26.172 155.671 25.626 155.403 25.162C155.139 24.694 154.779 24.332 154.323 24.076C153.867 23.82 153.357 23.692 152.793 23.692C152.369 23.692 151.973 23.766 151.605 23.914C151.241 24.058 150.921 24.266 150.645 24.538C150.373 24.81 150.159 25.138 150.003 25.522C149.851 25.902 149.775 26.328 149.775 26.8C149.775 27.428 149.909 27.976 150.177 28.444C150.445 28.908 150.805 29.268 151.257 29.524C151.713 29.78 152.225 29.908 152.793 29.908Z" fill="#737373"/>
<path d="M141.287 31V22.6H144.173C144.977 22.6 145.627 22.78 146.123 23.14C146.619 23.496 146.867 24.022 146.867 24.718C146.867 24.986 146.803 25.24 146.675 25.48C146.551 25.716 146.389 25.924 146.189 26.104C145.989 26.284 145.781 26.416 145.565 26.5C146.021 26.64 146.401 26.896 146.705 27.268C147.013 27.64 147.167 28.098 147.167 28.642C147.167 29.102 147.051 29.51 146.819 29.866C146.587 30.218 146.257 30.496 145.829 30.7C145.401 30.9 144.893 31 144.305 31H141.287ZM142.631 29.944H144.077C144.653 29.944 145.081 29.832 145.361 29.608C145.641 29.38 145.781 29.038 145.781 28.582C145.781 28.13 145.639 27.786 145.355 27.55C145.075 27.314 144.641 27.196 144.053 27.196H142.631V29.944ZM142.631 26.188H143.963C144.287 26.188 144.567 26.136 144.803 26.032C145.039 25.928 145.223 25.778 145.355 25.582C145.487 25.386 145.553 25.15 145.553 24.874C145.553 24.482 145.413 24.182 145.133 23.974C144.857 23.762 144.461 23.656 143.945 23.656H142.631V26.188Z" fill="#737373"/>
<path d="M136.168 31V23.83H133.804V22.6H139.876V23.83H137.512V31H136.168Z" fill="#737373"/>
<path d="M130.033 31.18C129.161 31.18 128.399 31 127.747 30.64C127.095 30.28 126.587 29.772 126.223 29.116C125.863 28.456 125.683 27.686 125.683 26.806C125.683 26.166 125.789 25.58 126.001 25.048C126.217 24.512 126.519 24.048 126.907 23.656C127.299 23.264 127.761 22.96 128.293 22.744C128.825 22.528 129.409 22.42 130.045 22.42C130.685 22.42 131.237 22.5 131.701 22.66C132.169 22.82 132.577 23.048 132.925 23.344L132.229 24.442C131.965 24.198 131.657 24.016 131.305 23.896C130.953 23.776 130.565 23.716 130.141 23.716C129.673 23.716 129.251 23.788 128.875 23.932C128.499 24.076 128.177 24.282 127.909 24.55C127.645 24.814 127.441 25.136 127.297 25.516C127.157 25.892 127.087 26.318 127.087 26.794C127.087 27.442 127.213 27.996 127.465 28.456C127.721 28.916 128.081 29.268 128.545 29.512C129.013 29.752 129.565 29.872 130.201 29.872C130.625 29.872 131.033 29.81 131.425 29.686C131.821 29.558 132.191 29.352 132.535 29.068L133.159 30.202C132.755 30.518 132.293 30.76 131.773 30.928C131.257 31.096 130.677 31.18 130.033 31.18Z" fill="#737373"/>
<path d="M121.473 31V23.83H119.109V22.6H125.181V23.83H122.817V31H121.473Z" fill="#737373"/>
<path d="M110.936 31V22.6H112.28V25.936H116.348V22.6H117.692V31H116.348V27.172H112.28V31H110.936Z" fill="#737373"/>
<path d="M103.588 31V22.6H109.018V23.788H104.932V26.056H108.46V27.178H104.932V29.8H109.054V31H103.588Z" fill="#737373"/>
<path d="M97.4124 31V22.6H102.17V23.83H98.7564V31H97.4124Z" fill="#737373"/>
<path d="M88.126 31L91.39 22.6H92.848L96.196 31H94.678L93.904 28.996H90.346L89.602 31H88.126ZM90.694 27.838H93.544L92.092 24.178L90.694 27.838Z" fill="#737373"/>
<defs>
<radialGradient id="paint0_radial_2005_4562" cx="0" cy="0" r="1" gradientUnits="userSpaceOnUse" gradientTransform="translate(35.9615 35.9616) scale(34.514 33.6809)">
<stop stop-color="#E31F25"/>
<stop offset="1" stop-color="#9E241F"/>
</radialGradient>
<clipPath id="clip0_2005_4562">
<rect width="72" height="72" fill="white"/>
</clipPath>
</defs>
</svg>
