<svg width="36" height="50" viewBox="0 0 36 50" fill="none" xmlns="http://www.w3.org/2000/svg">
<path fill-rule="evenodd" clip-rule="evenodd" d="M27.0712 36.3049C23.7726 40.3571 20.4616 44.4245 18.9107 49.3596C18.6286 50.2496 17.3565 50.1936 17.0745 49.3056C15.5159 44.396 12.2173 40.344 8.93117 36.3072C4.4541 30.8075 0 25.336 0 17.7626C0 7.38822 9.01235 -0.908052 19.7327 0.0799802C29.205 0.952009 36.4672 9.38628 35.9752 18.7606C35.6048 25.8217 31.3485 31.0504 27.0712 36.3049ZM24.0009 17.9986C24.0009 21.3125 21.3145 23.9988 18.0007 23.9988C14.6869 23.9988 12.0005 21.3125 12.0005 17.9986C12.0005 14.6848 14.6869 11.9984 18.0007 11.9984C21.3145 11.9984 24.0009 14.6848 24.0009 17.9986Z" fill="#C4161C"/>
</svg>
